<?xml version="1.0" encoding="UTF-8"?>
<svg id="Layer_2" data-name="Layer 2" xmlns="http://www.w3.org/2000/svg" viewBox="0 0 797.25 648.97">
  <defs>
    <style>
      .cls-1 {
        fill: #af090a;
      }

      .cls-2 {
        fill: #770b04;
      }

      .cls-3 {
        fill: #c20e26;
      }

      .cls-4 {
        fill: #dd8692;
      }

      .cls-5 {
        fill: #4b0b04;
      }

      .cls-6 {
        fill: #320400;
      }

      .cls-7 {
        fill: #b20a08;
      }

      .cls-8 {
        fill: #71150e;
      }

      .cls-9 {
        fill: #ef9caa;
      }

      .cls-10 {
        fill: #ae040a;
      }

      .cls-11 {
        fill: #340602;
      }

      .cls-12 {
        fill: #800904;
      }

      .cls-13 {
        fill: #9e0c06;
      }

      .cls-14 {
        fill: #2f0401;
      }

      .cls-15 {
        fill: #950802;
      }

      .cls-16 {
        fill: #cf6672;
      }

      .cls-17 {
        fill: #9e0503;
      }

      .cls-18 {
        fill: #b90515;
      }

      .cls-19 {
        fill: #c60102;
      }

      .cls-20 {
        fill: #7b1009;
      }

      .cls-21 {
        fill: #cd0207;
      }

      .cls-22 {
        fill: #b43d4b;
      }

      .cls-23 {
        fill: #880902;
      }

      .cls-24 {
        fill: #ffbdcf;
      }

      .cls-25 {
        fill: #880b06;
      }

      .cls-26 {
        fill: #2d0401;
      }

      .cls-27 {
        fill: #8e0b04;
      }

      .cls-28 {
        fill: #d87883;
      }

      .cls-29 {
        fill: #eea6b9;
      }

      .cls-30 {
        fill: #a70300;
      }

      .cls-31 {
        fill: #940b04;
      }

      .cls-32 {
        fill: #b90811;
      }

      .cls-33 {
        fill: #5b0c05;
      }

      .cls-34 {
        fill: #b00005;
      }

      .cls-35 {
        fill: #711008;
      }

      .cls-36 {
        fill: #410500;
      }

      .cls-37 {
        fill: #b00d07;
      }

      .cls-38 {
        fill: #a50603;
      }

      .cls-39 {
        fill: #f0acbd;
      }

      .cls-40 {
        fill: #aa0908;
      }

      .cls-41 {
        fill: #b70807;
      }

      .cls-42 {
        fill: #fab0c2;
      }

      .cls-43 {
        fill: #3c0e08;
      }

      .cls-44 {
        fill: #400500;
      }

      .cls-45 {
        fill: #b11614;
      }

      .cls-46 {
        fill: #410601;
      }

      .cls-47 {
        fill: #540a04;
      }

      .cls-48 {
        fill: #c01228;
      }

      .cls-49 {
        fill: #b80a19;
      }

      .cls-50 {
        fill: #4e0500;
      }

      .cls-51 {
        fill: #470601;
      }

      .cls-52 {
        fill: #9d0800;
      }

      .cls-53 {
        fill: #820a03;
      }

      .cls-54 {
        fill: #310904;
      }

      .cls-55 {
        fill: #aa070f;
      }

      .cls-56 {
        fill: #5e0500;
      }

      .cls-57 {
        fill: #460802;
      }

      .cls-58 {
        fill: #6d0701;
      }

      .cls-59 {
        fill: #510601;
      }

      .cls-60 {
        fill: #750c04;
      }

      .cls-61 {
        fill: #3e0400;
      }

      .cls-62 {
        fill: #dc143c;
      }

      .cls-63 {
        fill: #f8aec2;
      }

      .cls-64 {
        fill: #f8b0c1;
      }

      .cls-65 {
        fill: #730400;
      }

      .cls-66 {
        fill: #370501;
      }

      .cls-67 {
        fill: #4a0904;
      }

      .cls-68 {
        fill: #430a05;
      }

      .cls-69 {
        fill: #980401;
      }

      .cls-70 {
        fill: #830601;
      }

      .cls-71 {
        fill: #4c0b03;
      }

      .cls-72 {
        fill: #51130c;
      }

      .cls-73 {
        fill: #990500;
      }

      .cls-74 {
        fill: #7e0905;
      }

      .cls-75 {
        fill: #fec2d0;
      }

      .cls-76 {
        fill: #890a02;
      }

      .cls-77 {
        fill: #810c04;
      }

      .cls-78 {
        fill: #ab0004;
      }

      .cls-79 {
        fill: #6d0902;
      }

      .cls-80 {
        fill: #53110a;
      }

      .cls-81 {
        fill: #6c0400;
      }

      .cls-82 {
        fill: #eeacbe;
      }
    </style>
  </defs>
  <g id="Layer_2-2" data-name="Layer 2">
    <g>
      <polygon class="cls-59" points="763.39 429.22 694.82 467.79 735.11 411.22 763.39 429.22"/>
      <polygon class="cls-55" points="797.25 354.65 763.39 429.22 735.11 411.22 797.25 354.65"/>
      <polygon class="cls-42" points="797.25 354.65 735.11 411.22 712.82 390.65 797.25 354.65"/>
      <polygon class="cls-34" points="735.11 411.22 694.82 467.79 712.82 390.65 735.11 411.22"/>
      <polygon class="cls-20" points="384.75 407.9 325.12 393.11 328.39 384.65 384.75 407.9"/>
      <polygon class="cls-9" points="558.96 62.04 549.64 160.72 509.46 96.11 558.96 62.04"/>
      <polygon class="cls-49" points="509.46 96.11 549.64 160.72 526.5 216.97 517.82 203.79 509.46 96.11"/>
      <polygon class="cls-40" points="517.82 203.79 526.5 216.97 503.68 266.15 500.8 265.35 486.32 247.18 462.86 126 517.82 203.79"/>
      <polygon class="cls-73" points="500.8 265.35 439.63 248.46 438.75 181.29 486.32 247.18 500.8 265.35"/>
      <polygon class="cls-29" points="571.18 172.29 586.28 314.68 549.64 160.72 558.96 62.04 571.18 172.29"/>
      <polygon class="cls-4" points="549.64 160.72 586.28 314.68 526.5 216.97 549.64 160.72"/>
      <polygon class="cls-48" points="503.68 266.15 526.5 216.97 586.28 314.68 501.43 266.15 500.8 265.35 503.68 266.15"/>
      <polygon class="cls-52" points="586.28 314.68 528.75 322.72 501.43 266.15 586.28 314.68"/>
      <polygon class="cls-72" points="501.43 266.15 528.75 322.72 520.39 324.48 501.43 266.15"/>
      <polygon class="cls-76" points="501.43 266.15 520.39 324.48 485.03 326.9 501.43 266.15"/>
      <polygon class="cls-32" points="500.8 265.35 501.43 266.15 485.03 326.9 439.71 254.57 439.63 248.46 500.8 265.35"/>
      <polygon class="cls-46" points="485.03 326.9 471.21 368.68 421.07 295.72 485.03 326.9"/>
      <polygon class="cls-79" points="439.71 254.57 485.03 326.9 421.07 295.72 421.07 224.04 439.71 254.57"/>
      <polygon class="cls-65" points="586.28 314.68 561.54 377.36 528.75 322.72 586.28 314.68"/>
      <polygon class="cls-68" points="528.75 322.72 561.54 377.36 546.96 414.32 520.39 324.48 528.75 322.72"/>
      <polygon class="cls-2" points="520.39 324.48 546.96 414.32 485.03 326.9 520.39 324.48"/>
      <polygon class="cls-66" points="485.03 326.9 546.96 414.32 471.21 368.68 485.03 326.9"/>
      <polygon class="cls-38" points="46.61 111.54 56.68 162.22 9.64 95.47 46.61 111.54"/>
      <polygon class="cls-35" points="155.19 220.55 182.25 247.72 56.68 162.22 46.61 111.54 155.19 220.55"/>
      <polygon class="cls-16" points="90.11 98.36 125.68 148.07 46.61 111.54 0 0 90.11 98.36"/>
      <polygon class="cls-63" points="153 112.18 125.68 148.07 90.11 98.36 0 0 153 112.18"/>
      <polygon class="cls-75" points="323.36 243.65 197.25 180.65 153 112.18 323.36 243.65"/>
      <polygon class="cls-28" points="153 112.18 197.25 180.65 125.68 148.07 153 112.18"/>
      <polygon class="cls-30" points="197.25 180.65 155.19 220.55 46.61 111.54 125.68 148.07 197.25 180.65"/>
      <polygon class="cls-17" points="197.25 180.65 247.82 275.47 182.25 247.72 155.19 220.55 197.25 180.65"/>
      <polygon class="cls-39" points="323.36 243.65 247.82 275.47 197.25 180.65 323.36 243.65"/>
      <polygon class="cls-62" points="412.07 322.72 395.36 364.18 323.36 243.65 412.07 322.72"/>
      <polygon class="cls-3" points="323.36 243.65 395.36 364.18 277.39 288.22 323.36 243.65"/>
      <polygon class="cls-69" points="395.36 364.18 352.33 376.55 247.82 275.47 323.36 243.65 277.39 288.22 395.36 364.18"/>
      <polygon class="cls-25" points="395.36 364.18 384.75 407.9 352.33 376.55 395.36 364.18"/>
      <polygon class="cls-43" points="384.75 407.9 328.39 384.65 253.82 317.41 247.82 275.47 352.33 376.55 384.75 407.9"/>
      <polygon class="cls-33" points="247.82 275.47 253.82 317.41 215.25 295.07 247.82 275.47"/>
      <polygon class="cls-74" points="247.82 275.47 215.25 295.07 182.25 247.72 247.82 275.47"/>
      <polygon class="cls-23" points="182.25 247.72 215.25 295.07 96.96 235.5 44.89 201.43 182.25 247.72"/>
      <polygon class="cls-81" points="198.43 326.39 99.32 265.93 44.89 201.43 96.96 235.5 198.43 326.39"/>
      <polygon class="cls-41" points="215.25 295.07 198.43 326.39 96.96 235.5 215.25 295.07"/>
      <polygon class="cls-13" points="328.39 384.65 325.12 393.11 198.43 326.39 215.25 295.07 253.82 317.41 328.39 384.65"/>
      <polygon class="cls-1" points="412.07 322.72 457.18 435.43 395.36 364.18 412.07 322.72"/>
      <polygon class="cls-70" points="395.36 364.18 457.18 435.43 384.75 407.9 395.36 364.18"/>
      <polygon class="cls-57" points="198.43 326.39 154.18 364.93 93.11 301.93 198.43 326.39"/>
      <polygon class="cls-66" points="325.12 393.11 258.32 393 154.18 364.93 198.43 326.39 325.12 393.11"/>
      <polygon class="cls-47" points="220.93 393.5 233.46 453.86 145.18 394.5 220.93 393.5"/>
      <polygon class="cls-51" points="325.12 393.11 233.46 453.86 220.93 393.5 258.32 393 325.12 393.11"/>
      <polygon class="cls-6" points="384.75 407.9 233.46 453.86 325.12 393.11 384.75 407.9"/>
      <polygon class="cls-82" points="412.07 322.72 465.75 387.97 457.18 435.43 412.07 322.72"/>
      <polygon class="cls-22" points="465.75 387.97 494.68 423.97 457.18 435.43 465.75 387.97"/>
      <polygon class="cls-7" points="457.18 435.43 391.18 437.47 384.75 407.9 457.18 435.43"/>
      <polygon class="cls-15" points="384.75 407.9 391.18 437.47 310.18 458.04 220.93 461.91 216.96 460.5 233.46 453.86 384.75 407.9"/>
      <polygon class="cls-26" points="457.18 435.43 401.82 456.65 316.61 495.86 220.93 461.91 310.18 458.04 391.18 437.47 457.18 435.43"/>
      <polygon class="cls-12" points="708.96 556.93 696.96 581.79 687.53 544.93 708.96 556.93"/>
      <polygon class="cls-71" points="763.39 578.79 696.96 581.79 708.96 556.93 763.39 578.79"/>
      <polygon class="cls-19" points="763.39 578.79 708.96 556.93 715.39 541.93 763.39 578.79"/>
      <polygon class="cls-21" points="715.39 541.93 708.96 556.93 687.53 544.93 715.39 541.93"/>
      <polygon class="cls-6" points="650.25 514.29 598.18 492.11 610.39 481.07 650.25 514.29"/>
      <polygon class="cls-8" points="623.25 468.97 650.25 514.29 610.39 481.07 623.25 468.97"/>
      <polygon class="cls-64" points="608.78 430.4 594.11 450.65 546.96 414.32 608.78 430.4"/>
      <polygon class="cls-45" points="608.78 430.4 623.25 468.97 594.11 450.65 608.78 430.4"/>
      <polygon class="cls-80" points="623.25 468.97 610.39 481.07 598.18 492.11 594.11 450.65 623.25 468.97"/>
      <polygon class="cls-77" points="594.11 450.65 598.18 492.11 546.75 470.15 594.11 450.65"/>
      <polygon class="cls-37" points="594.11 450.65 546.75 470.15 546.96 414.32 594.11 450.65"/>
      <polygon class="cls-24" points="546.96 414.32 546.75 470.15 457.18 435.43 494.68 423.97 546.96 414.32"/>
      <polygon class="cls-11" points="598.18 492.11 532.61 522 546.75 470.15 598.18 492.11"/>
      <polygon class="cls-61" points="532.61 522 473.78 572.15 471.96 527.36 532.61 522"/>
      <polygon class="cls-53" points="483.53 491.65 546.75 470.15 532.61 522 471.96 527.36 434.25 533.57 473.68 495 483.53 491.65"/>
      <polygon class="cls-10" points="546.75 470.15 483.53 491.65 457.18 435.43 546.75 470.15"/>
      <polygon class="cls-18" points="457.18 435.43 483.53 491.65 473.68 495 401.82 456.65 457.18 435.43"/>
      <polygon class="cls-5" points="473.68 495 434.25 533.57 401.82 456.65 473.68 495"/>
      <polygon class="cls-54" points="471.96 527.36 473.78 572.15 391.82 590.47 434.25 533.57 471.96 527.36"/>
      <polygon class="cls-11" points="434.25 533.57 391.82 590.47 304.07 569.25 329.25 558.86 434.25 533.57"/>
      <polygon class="cls-60" points="401.82 456.65 434.25 533.57 329.25 558.86 304.07 569.25 344.68 528.43 401.82 456.65"/>
      <polygon class="cls-67" points="401.82 456.65 344.68 528.43 304.07 569.25 300.71 503.24 316.61 495.86 401.82 456.65"/>
      <polygon class="cls-44" points="300.71 503.24 304.07 569.25 252.53 569.25 300.71 503.24"/>
      <polygon class="cls-31" points="300.71 503.24 252.53 569.25 221.68 569.25 276.88 514.29 300.71 503.24"/>
      <polygon class="cls-78" points="276.88 514.29 221.68 569.25 142.6 573.06 203.89 548.15 276.88 514.29"/>
      <polygon class="cls-27" points="304.07 569.25 199.61 618.11 221.68 569.25 252.53 569.25 304.07 569.25"/>
      <polygon class="cls-56" points="221.68 569.25 199.61 618.11 202.82 579.22 221.68 569.25"/>
      <polygon class="cls-36" points="202.82 579.22 199.61 618.11 156.21 595.29 202.82 579.22"/>
      <polygon class="cls-58" points="221.68 569.25 202.82 579.22 156.21 595.29 107.68 587.25 142.58 573.06 142.6 573.06 221.68 569.25"/>
      <polygon class="cls-50" points="199.61 618.11 124.07 628.72 156.21 595.29 199.61 618.11"/>
      <polygon class="cls-14" points="304.07 569.25 239.78 646.07 188.68 648.97 199.61 618.11 304.07 569.25"/>
    </g>
  </g>
</svg>